<svg width="61" height="60" viewBox="0 0 61 60" fill="none" xmlns="http://www.w3.org/2000/svg">
<g clip-path="url(#clip0_0_82)">
<path d="M17.9996 40C14.8803 40 11.8888 38.8147 9.6831 36.7049C7.47742 34.5952 6.23828 31.7337 6.23828 28.75C6.23828 25.7663 7.47742 22.9048 9.6831 20.795C11.8888 18.6853 14.8803 17.5 17.9996 17.5C18.7364 14.2179 20.8916 11.3337 23.9911 9.48178C27.0907 7.62985 30.8807 6.96195 34.5274 7.62499C38.1741 8.28803 41.3789 10.2277 43.4365 13.0173C45.4942 15.8069 46.2364 19.2179 45.4996 22.5H47.9996C50.3203 22.5 52.5459 23.4219 54.1868 25.0628C55.8278 26.7037 56.7496 28.9293 56.7496 31.25C56.7496 33.5706 55.8278 35.7962 54.1868 37.4372C52.5459 39.0781 50.3203 40 47.9996 40H17.9996Z" stroke="#0098FF" stroke-width="2.75" stroke-linecap="round" stroke-linejoin="round"/>
<path d="M13 50H48" stroke="#0098FF" stroke-width="2.75" stroke-linecap="round" stroke-linejoin="round"/>
</g>
<defs>
<clipPath id="clip0_0_82">
<rect width="60" height="60" fill="white" transform="translate(0.5)"/>
</clipPath>
</defs>
</svg>
